<svg xmlns="http://www.w3.org/2000/svg" xmlns:xlink="http://www.w3.org/1999/xlink" width="1920" zoomAndPan="magnify" viewBox="0 0 1440 809.999993" height="1080" preserveAspectRatio="xMidYMid meet" version="1.0"><path stroke-linecap="round" transform="matrix(0.000000001309, 0.75, -0.75, 0.000000001309, 1158.200228, -31.152089)" fill="none" stroke-linejoin="miter" d="M 23.499662 23.501347 L 348.067386 23.501347 " stroke="#0097b2" stroke-width="47" stroke-opacity="1" stroke-miterlimit="4"/><path stroke-linecap="round" transform="matrix(0.000000001309, 0.75, -0.75, 0.000000001309, 1158.200228, 390.269619)" fill="none" stroke-linejoin="miter" d="M 23.499884 23.501347 L 181.926976 23.501347 " stroke="#0097b2" stroke-width="47" stroke-opacity="1" stroke-miterlimit="4"/><path stroke-linecap="round" transform="matrix(0.000000001309, 0.75, -0.75, 0.000000001309, 1158.199748, 273.015856)" fill="none" stroke-linejoin="miter" d="M 23.499693 23.500707 L 98.848655 23.500707 " stroke="#0097b2" stroke-width="47" stroke-opacity="1" stroke-miterlimit="4"/><path stroke-linecap="round" transform="matrix(0, 0.75, -0.75, 0, 1158.200684, 556.338856)" fill="none" stroke-linejoin="miter" d="M 23.501318 23.501955 L 25.001318 23.501955 " stroke="#0097b2" stroke-width="47" stroke-opacity="1" stroke-miterlimit="4"/><path stroke-linecap="round" transform="matrix(0.000000001309, 0.75, -0.75, 0.000000001309, 1158.200228, 604.716782)" fill="none" stroke-linejoin="miter" d="M 23.497417 23.501347 L 348.065142 23.501347 " stroke="#0097b2" stroke-width="47" stroke-opacity="1" stroke-miterlimit="4"/><path stroke-linecap="round" transform="matrix(0.000000001309, 0.75, -0.75, 0.000000001309, 1101.074831, 58.835443)" fill="none" stroke-linejoin="miter" d="M 23.50066 23.500817 L 348.068385 23.500818 " stroke="#f38a4a" stroke-width="47" stroke-opacity="1" stroke-miterlimit="4"/><path stroke-linecap="round" transform="matrix(0.000000001309, 0.75, -0.75, 0.000000001309, 1101.074831, -235.797362)" fill="none" stroke-linejoin="miter" d="M 23.50065 23.500817 L 348.068375 23.500818 " stroke="#f38a4a" stroke-width="47" stroke-opacity="1" stroke-miterlimit="4"/><path stroke-linecap="round" transform="matrix(0.000000001309, 0.75, -0.75, 0.000000001309, 1101.074831, 670.66405)" fill="none" stroke-linejoin="miter" d="M 23.500017 23.500817 L 348.067742 23.500818 " stroke="#f38a4a" stroke-width="47" stroke-opacity="1" stroke-miterlimit="4"/><path stroke-linecap="round" transform="matrix(0.000000001309, 0.75, -0.75, 0.000000001309, 1101.074831, 373.510753)" fill="none" stroke-linejoin="miter" d="M 23.501289 23.500817 L 348.069013 23.500818 " stroke="#f38a4a" stroke-width="47" stroke-opacity="1" stroke-miterlimit="4"/><path stroke-linecap="round" transform="matrix(0.000000001309, 0.75, -0.75, 0.000000001309, 1044.074834, -80.502223)" fill="none" stroke-linejoin="miter" d="M 23.497757 23.500821 L 348.065482 23.500822 " stroke="#ffde5a" stroke-width="47" stroke-opacity="1" stroke-miterlimit="4"/><path stroke-linecap="round" transform="matrix(0.000000001309, 0.75, -0.75, 0.000000001309, 1044.074834, 277.664068)" fill="none" stroke-linejoin="miter" d="M 23.499994 23.500821 L 348.067719 23.500822 " stroke="#ffde5a" stroke-width="47" stroke-opacity="1" stroke-miterlimit="4"/><path stroke-linecap="round" transform="matrix(0, 0.75, -0.75, 0, 1044.075434, 217.405072)" fill="none" stroke-linejoin="miter" d="M 23.501571 23.501621 L 25.001572 23.501621 " stroke="#ffde5a" stroke-width="47" stroke-opacity="1" stroke-miterlimit="4"/><path stroke-linecap="round" transform="matrix(0.000000001309, 0.75, -0.75, 0.000000001309, 1044.074834, 589.664054)" fill="none" stroke-linejoin="miter" d="M 23.500012 23.500821 L 348.067737 23.500822 " stroke="#ffde5a" stroke-width="47" stroke-opacity="1" stroke-miterlimit="4"/></svg>