<svg xmlns="http://www.w3.org/2000/svg" xmlns:xlink="http://www.w3.org/1999/xlink" width="2622" zoomAndPan="magnify" viewBox="0 0 1966.5 495.749987" height="661" preserveAspectRatio="xMidYMid meet" version="1.0"><defs><g/></defs><g fill="#000000" fill-opacity="1"><g transform="translate(325.082351, 406.393633)"><g><path d="M 47.5625 -196.15625 L 75.03125 -196.15625 C 86.632812 -196.15625 95.414062 -193.171875 101.375 -187.203125 C 107.34375 -181.234375 110.328125 -172.445312 110.328125 -160.84375 L 110.328125 -134.859375 C 110.328125 -132.242188 109.019531 -130.9375 106.40625 -130.9375 L 80.90625 -130.9375 C 78.289062 -130.9375 76.984375 -132.242188 76.984375 -134.859375 L 76.984375 -153.984375 C 76.984375 -160.515625 73.71875 -163.78125 67.1875 -163.78125 L 55.40625 -163.78125 C 48.875 -163.78125 45.609375 -160.515625 45.609375 -153.984375 L 45.609375 -120.140625 L 103.953125 -101.015625 C 108.203125 -99.210938 110.328125 -96.191406 110.328125 -91.953125 L 110.328125 -35.3125 C 110.328125 -23.863281 107.34375 -15.113281 101.375 -9.0625 C 95.414062 -3.019531 86.632812 0 75.03125 0 L 47.5625 0 C 36.125 0 27.378906 -3.019531 21.328125 -9.0625 C 15.285156 -15.113281 12.265625 -23.863281 12.265625 -35.3125 L 12.265625 -61.046875 C 12.265625 -63.660156 13.570312 -64.96875 16.1875 -64.96875 L 41.6875 -64.96875 C 44.300781 -64.96875 45.609375 -63.660156 45.609375 -61.046875 L 45.609375 -42.171875 C 45.609375 -35.628906 48.875 -32.359375 55.40625 -32.359375 L 67.1875 -32.359375 C 73.71875 -32.359375 76.984375 -35.628906 76.984375 -42.171875 L 76.984375 -74.78125 L 18.875 -93.90625 C 14.46875 -95.375 12.265625 -98.398438 12.265625 -102.984375 L 12.265625 -160.84375 C 12.265625 -172.445312 15.285156 -181.234375 21.328125 -187.203125 C 27.378906 -193.171875 36.125 -196.15625 47.5625 -196.15625 Z M 47.5625 -196.15625 "/></g></g></g><g fill="#000000" fill-opacity="1"><g transform="translate(447.652993, 406.393633)"><g><path d="M 16.1875 0 L 41.6875 0 C 44.300781 0 45.609375 -1.304688 45.609375 -3.921875 L 45.609375 -167.703125 C 45.609375 -170.316406 44.300781 -171.625 41.6875 -171.625 L 16.1875 -171.625 C 13.570312 -171.625 12.265625 -170.316406 12.265625 -167.703125 L 12.265625 -3.921875 C 12.265625 -1.304688 13.570312 0 16.1875 0 Z M 16.1875 0 "/></g></g></g><g fill="#000000" fill-opacity="1"><g transform="translate(505.506351, 406.393633)"><g><path d="M 114.75 -171.625 L 147.109375 -171.625 C 150.378906 -171.625 152.015625 -169.992188 152.015625 -166.734375 L 152.015625 -4.90625 C 152.015625 -1.632812 150.378906 0 147.109375 0 L 124.3125 0 C 121.039062 0 119.40625 -1.632812 119.40625 -4.90625 L 119.40625 -101.265625 L 117.6875 -101.265625 L 94.640625 -4.171875 C 93.828125 -1.390625 92.03125 0 89.25 0 L 74.78125 0 C 72 0 70.203125 -1.390625 69.390625 -4.171875 L 46.34375 -101.265625 L 44.625 -101.265625 L 44.625 -4.90625 C 44.625 -1.632812 42.988281 0 39.71875 0 L 17.15625 0 C 13.894531 0 12.265625 -1.632812 12.265625 -4.90625 L 12.265625 -166.734375 C 12.265625 -169.992188 13.894531 -171.625 17.15625 -171.625 L 49.53125 -171.625 C 52.3125 -171.625 54.109375 -170.238281 54.921875 -167.46875 L 82.140625 -58.109375 L 109.359375 -167.46875 C 110.171875 -170.238281 111.96875 -171.625 114.75 -171.625 Z M 114.75 -171.625 "/></g></g></g><g fill="#000000" fill-opacity="1"><g transform="translate(669.750989, 406.393633)"><g><path d="M 12.265625 -3.921875 L 12.265625 -167.703125 C 12.265625 -170.316406 13.570312 -171.625 16.1875 -171.625 L 75.03125 -171.625 C 86.632812 -171.625 95.414062 -168.640625 101.375 -162.671875 C 107.34375 -156.710938 110.328125 -147.929688 110.328125 -136.328125 L 110.328125 -88.265625 C 110.328125 -76.828125 107.34375 -68.125 101.375 -62.15625 C 95.414062 -56.1875 86.632812 -53.117188 75.03125 -52.953125 L 44.140625 -52.71875 L 44.140625 -3.671875 C 44.140625 -1.054688 42.828125 0.25 40.203125 0.25 L 16.1875 0 C 13.570312 0 12.265625 -1.304688 12.265625 -3.921875 Z M 44.140625 -84.34375 L 68.65625 -84.59375 C 75.1875 -84.59375 78.453125 -87.859375 78.453125 -94.390625 L 78.453125 -130.1875 C 78.453125 -136.726562 75.1875 -140 68.65625 -140 L 44.140625 -139.75 Z M 44.140625 -84.34375 "/></g></g></g><g fill="#000000" fill-opacity="1"><g transform="translate(792.321632, 406.393633)"><g><path d="M 45.609375 -32.359375 L 45.609375 -167.703125 C 45.609375 -170.316406 44.300781 -171.625 41.6875 -171.625 L 16.1875 -171.625 C 13.570312 -171.625 12.265625 -170.316406 12.265625 -167.703125 L 12.265625 -3.921875 C 12.265625 -1.304688 13.570312 0 16.1875 0 L 94.15625 0 C 96.769531 0 98.078125 -1.304688 98.078125 -3.921875 L 98.078125 -28.4375 C 98.078125 -31.050781 96.769531 -32.359375 94.15625 -32.359375 Z M 45.609375 -32.359375 "/></g></g></g><g fill="#000000" fill-opacity="1"><g transform="translate(902.635173, 406.393633)"><g><path d="M 97.578125 -171.625 L 122.109375 -171.625 C 123.898438 -171.625 125.203125 -171.09375 126.015625 -170.03125 C 126.835938 -168.96875 126.84375 -167.617188 126.03125 -165.984375 L 81.15625 -64.234375 L 81.15625 -4.90625 C 81.15625 -1.632812 79.519531 0 76.25 0 L 52.71875 0 C 49.445312 0 47.8125 -1.632812 47.8125 -4.90625 L 47.8125 -64.234375 L 2.9375 -165.984375 C 2.289062 -167.617188 2.332031 -168.96875 3.0625 -170.03125 C 3.800781 -171.09375 5.066406 -171.625 6.859375 -171.625 L 31.390625 -171.625 C 34.160156 -171.625 36.035156 -170.316406 37.015625 -167.703125 L 64.484375 -104.6875 L 91.953125 -167.703125 C 92.929688 -170.316406 94.804688 -171.625 97.578125 -171.625 Z M 97.578125 -171.625 "/></g></g></g><g fill="#000000" fill-opacity="1"><g transform="translate(1031.579475, 406.393633)"><g/></g></g><g fill="#000000" fill-opacity="1"><g transform="translate(1092.864769, 406.393633)"><g><path d="M 12.265625 -3.921875 L 12.265625 -192.234375 C 12.265625 -194.847656 13.570312 -196.15625 16.1875 -196.15625 L 75.03125 -196.15625 C 86.632812 -196.15625 95.414062 -193.128906 101.375 -187.078125 C 107.34375 -181.023438 110.328125 -172.195312 110.328125 -160.59375 L 110.328125 -35.3125 C 110.328125 -23.863281 107.34375 -15.113281 101.375 -9.0625 C 95.414062 -3.019531 86.632812 0 75.03125 0 L 16.1875 0 C 13.570312 0 12.265625 -1.304688 12.265625 -3.921875 Z M 45.609375 -32.359375 L 68.15625 -32.359375 C 74.695312 -32.359375 77.96875 -35.628906 77.96875 -42.171875 L 77.96875 -153.734375 C 77.96875 -160.429688 74.695312 -163.78125 68.15625 -163.78125 L 45.609375 -163.78125 Z M 45.609375 -32.359375 "/></g></g></g><g fill="#000000" fill-opacity="1"><g transform="translate(1215.435411, 406.393633)"><g><path d="M 16.1875 0 L 41.6875 0 C 44.300781 0 45.609375 -1.304688 45.609375 -3.921875 L 45.609375 -167.703125 C 45.609375 -170.316406 44.300781 -171.625 41.6875 -171.625 L 16.1875 -171.625 C 13.570312 -171.625 12.265625 -170.316406 12.265625 -167.703125 L 12.265625 -3.921875 C 12.265625 -1.304688 13.570312 0 16.1875 0 Z M 16.1875 0 "/></g></g></g><g fill="#000000" fill-opacity="1"><g transform="translate(1273.288768, 406.393633)"><g><path d="M 12.265625 -35.3125 L 12.265625 -136.328125 C 12.265625 -147.929688 15.285156 -156.710938 21.328125 -162.671875 C 27.378906 -168.640625 36.125 -171.625 47.5625 -171.625 L 75.03125 -171.625 C 86.46875 -171.625 95.207031 -168.640625 101.25 -162.671875 C 107.300781 -156.710938 110.328125 -147.929688 110.328125 -136.328125 L 110.328125 -118.1875 C 110.328125 -115.5625 109.019531 -114.25 106.40625 -114.25 L 83.359375 -114.25 C 80.742188 -114.25 79.4375 -115.5625 79.4375 -118.1875 L 79.4375 -130.1875 C 79.4375 -136.726562 76.171875 -140 69.640625 -140 L 53.9375 -140 C 47.40625 -140 44.140625 -136.726562 44.140625 -130.1875 L 44.140625 -41.4375 C 44.140625 -34.894531 47.40625 -31.625 53.9375 -31.625 L 69.640625 -31.625 C 76.171875 -31.625 79.4375 -34.894531 79.4375 -41.4375 L 79.4375 -62.765625 L 66.6875 -62.765625 C 64.070312 -62.765625 62.765625 -64.070312 62.765625 -66.6875 L 62.765625 -91.203125 C 62.765625 -93.816406 64.070312 -95.125 66.6875 -95.125 L 106.40625 -95.125 C 109.019531 -95.125 110.328125 -93.816406 110.328125 -91.203125 L 110.328125 -35.3125 C 110.328125 -23.863281 107.300781 -15.113281 101.25 -9.0625 C 95.207031 -3.019531 86.46875 0 75.03125 0 L 47.5625 0 C 36.125 0 27.378906 -3.019531 21.328125 -9.0625 C 15.285156 -15.113281 12.265625 -23.863281 12.265625 -35.3125 Z M 12.265625 -35.3125 "/></g></g></g><g fill="#000000" fill-opacity="1"><g transform="translate(1395.859359, 406.393633)"><g><path d="M 16.1875 0 L 41.6875 0 C 44.300781 0 45.609375 -1.304688 45.609375 -3.921875 L 45.609375 -167.703125 C 45.609375 -170.316406 44.300781 -171.625 41.6875 -171.625 L 16.1875 -171.625 C 13.570312 -171.625 12.265625 -170.316406 12.265625 -167.703125 L 12.265625 -3.921875 C 12.265625 -1.304688 13.570312 0 16.1875 0 Z M 16.1875 0 "/></g></g></g><g fill="#000000" fill-opacity="1"><g transform="translate(1453.712717, 406.393633)"><g><path d="M 101.5 -171.625 L 11.28125 -171.625 C 8.664062 -171.625 7.359375 -170.316406 7.359375 -167.703125 L 7.359375 -143.1875 C 7.359375 -140.570312 8.664062 -139.265625 11.28125 -139.265625 L 39.71875 -139.265625 L 39.71875 -3.921875 C 39.71875 -1.304688 41.023438 0 43.640625 0 L 69.140625 0 C 71.753906 0 73.0625 -1.304688 73.0625 -3.921875 L 73.0625 -139.265625 L 101.5 -139.265625 C 104.125 -139.265625 105.4375 -140.570312 105.4375 -143.1875 L 105.4375 -167.703125 C 105.4375 -170.316406 104.125 -171.625 101.5 -171.625 Z M 101.5 -171.625 "/></g></g></g><g fill="#000000" fill-opacity="1"><g transform="translate(1566.47771, 406.393633)"><g><path d="M 127.984375 0 L 104.203125 0 C 102.078125 0 100.769531 -1.144531 100.28125 -3.4375 L 92.4375 -34.328125 L 46.34375 -34.328125 L 38.734375 -3.4375 C 38.242188 -1.144531 36.9375 0 34.8125 0 L 10.78125 0 C 7.84375 0 6.78125 -1.390625 7.59375 -4.171875 L 48.296875 -168.203125 C 48.785156 -170.484375 50.175781 -171.625 52.46875 -171.625 L 86.546875 -171.625 C 88.835938 -171.625 90.226562 -170.484375 90.71875 -168.203125 L 131.421875 -4.171875 C 132.234375 -1.390625 131.085938 0 127.984375 0 Z M 84.828125 -62.765625 L 69.390625 -129.453125 L 53.9375 -62.765625 Z M 84.828125 -62.765625 "/></g></g></g><g fill="#000000" fill-opacity="1"><g transform="translate(1705.472848, 406.393633)"><g><path d="M 45.609375 -32.359375 L 45.609375 -167.703125 C 45.609375 -170.316406 44.300781 -171.625 41.6875 -171.625 L 16.1875 -171.625 C 13.570312 -171.625 12.265625 -170.316406 12.265625 -167.703125 L 12.265625 -3.921875 C 12.265625 -1.304688 13.570312 0 16.1875 0 L 94.15625 0 C 96.769531 0 98.078125 -1.304688 98.078125 -3.921875 L 98.078125 -28.4375 C 98.078125 -31.050781 96.769531 -32.359375 94.15625 -32.359375 Z M 45.609375 -32.359375 "/></g></g></g><path stroke-linecap="butt" transform="matrix(0.749614, -0.0034846, 0.0034846, 0.749614, 331.466247, 130.811223)" fill="none" stroke-linejoin="miter" d="M 0.00191961 15.999532 L 1980.380896 15.997506 " stroke="#0097b2" stroke-width="32" stroke-opacity="1" stroke-miterlimit="4"/><path stroke-linecap="butt" transform="matrix(0, -0.749622, 0.749622, 0, 264.98556, 412.466787)" fill="none" stroke-linejoin="miter" d="M 0.00259174 16.001278 L 272.087667 16.001278 " stroke="#0097b2" stroke-width="32" stroke-opacity="1" stroke-miterlimit="4"/><path stroke-linecap="butt" transform="matrix(0.481825, -0.574263, 0.574263, 0.481825, 246.654315, 197.113363)" fill="none" stroke-linejoin="miter" d="M 10.836894 43.723139 C 50.979041 6.757139 91.118388 6.756633 131.258287 43.725613 " stroke="#0097b2" stroke-width="32" stroke-opacity="1" stroke-miterlimit="4"/><path stroke-linecap="butt" transform="matrix(0.749611, -0.00402526, 0.00402526, 0.749611, 284.384955, 89.547777)" fill="none" stroke-linejoin="miter" d="M -0.000196972 16.001885 L 2021.245791 16.000981 " stroke="#ff914d" stroke-width="32" stroke-opacity="1" stroke-miterlimit="4"/><path stroke-linecap="butt" transform="matrix(0, -0.749622, 0.749622, 0, 216.788499, 412.467506)" fill="none" stroke-linejoin="miter" d="M -0.00165922 15.998399 L 311.447009 15.998399 " stroke="#ff914d" stroke-width="32" stroke-opacity="1" stroke-miterlimit="4"/><path stroke-linecap="butt" transform="matrix(0.440533, -0.606517, 0.606517, 0.440533, 196.590348, 168.869411)" fill="none" stroke-linejoin="miter" d="M 9.911851 45.882128 C 60.395996 6.038693 105.209249 6.039438 144.337053 45.882055 " stroke="#ff914d" stroke-width="32" stroke-opacity="1" stroke-miterlimit="4"/><path stroke-linecap="butt" transform="matrix(0.749608, -0.00450055, 0.00450055, 0.749608, 243.909149, 52.543486)" fill="none" stroke-linejoin="miter" d="M -0.000933767 16.002452 L 2053.909988 15.999309 " stroke="#ffde59" stroke-width="32" stroke-opacity="1" stroke-miterlimit="4"/><path stroke-linecap="butt" transform="matrix(0, -0.749622, 0.749622, 0, 175.421581, 412.468226)" fill="none" stroke-linejoin="miter" d="M -0.000699216 15.99804 L 346.741802 15.99804 " stroke="#ffde59" stroke-width="32" stroke-opacity="1" stroke-miterlimit="4"/><path stroke-linecap="butt" transform="matrix(0.408369, -0.628624, 0.628624, 0.408369, 153.823978, 143.556859)" fill="none" stroke-linejoin="miter" d="M 9.18983 47.476814 C 68.997914 5.510865 118.118571 5.509662 156.544594 47.471672 " stroke="#ffde59" stroke-width="32" stroke-opacity="1" stroke-miterlimit="4"/></svg>